<svg width="287" height="72" viewBox="0 0 287 72" fill="none" xmlns="http://www.w3.org/2000/svg">
  <rect width="287" height="72" fill="#F4F6F9"/>
  <g transform="translate(14,12)">
    <path d="M27.2 0C17.4 0 9.5 7.8 9.5 17.4C9.5 30.6 24.9 42.2 27.2 44C29.5 42.2 44.9 30.6 44.9 17.4C44.9 7.8 37 0 27.2 0Z" fill="#4F86D9"/>
    <path d="M27.2 7.3C23.1 3.3 16.5 3.5 12.6 7.6C8.6 11.7 8.8 18.2 12.9 22.2L27.2 36.1L41.5 22.2C45.6 18.2 45.8 11.7 41.8 7.6C37.9 3.5 31.3 3.3 27.2 7.3Z" fill="#FFFFFF"/>
    <circle cx="11.2" cy="5.8" r="5.8" fill="#E75C5C"/>
  </g>
  <text x="74" y="46" fill="#2E3B4E" font-family="Segoe UI, Arial, sans-serif" font-size="44" font-weight="700">NearHelp</text>
</svg>
